<?xml version="1.0" encoding="utf-8"?>
<!-- Generator: Adobe Illustrator 21.1.0, SVG Export Plug-In . SVG Version: 6.00 Build 0)  -->
<svg version="1.1" xmlns="http://www.w3.org/2000/svg" xmlns:xlink="http://www.w3.org/1999/xlink" x="0px" y="0px"
	 viewBox="0 0 144.3 198.8" style="enable-background:new 0 0 144.3 198.8;" xml:space="preserve">
<style type="text/css">
	.st0{fill:#E6E0D6;}
	.st1{fill:#DBD2C1;}
	.st2{fill:#D3D3D3;}
	.st3{fill:#ECE5E0;}
	.st4{fill:#B5B5B5;}
	.st5{fill:#E7A2A1;}
	.st6{fill:#E48A8A;}
	.st7{fill:#574A42;}
	.st8{fill:#FFFFFF;}
	.st9{fill:#E9C0C0;}
	.st10{fill:#F1D580;}
	.st11{clip-path:url(#SVGID_2_);fill:#FFFFFF;}
	.st12{opacity:0.33;}
	.st13{fill:#E3E3E4;}
	.st14{clip-path:url(#SVGID_4_);fill:#FFFFFF;}
	.st15{clip-path:url(#SVGID_6_);fill:#FFFFFF;}
	.st16{fill:#AEBF51;}
	.st17{fill:#C6D866;}
	.st18{fill:#E38A22;}
	.st19{fill:#D07A1E;}
	.st20{fill:#E5A14B;}
	.st21{fill:#EDC95D;}
	.st22{fill:#EBC247;}
	.st23{clip-path:url(#SVGID_8_);}
</style>
<g id="BACKGROUND">
</g>
<g id="OBJECTS">
	<g>
		<path class="st2" d="M102.2,156.2c0,22.4-13.4,40.5-29.8,40.5c-16.5,0-29.8-18.1-29.8-40.5c0-22.4,13.3-40.5,29.8-40.5
			C88.9,115.7,102.2,133.8,102.2,156.2"/>
		<path class="st2" d="M72.4,192.5c-15.9,0-28.9-16-29.8-36.1c0,0.7,0,1.4,0,2.1c0,21.1,13.3,38.3,29.8,38.3
			c16.5,0,29.8-17.1,29.8-38.3c0-0.7,0-1.4,0-2.1C101.3,176.5,88.3,192.5,72.4,192.5"/>
		<path class="st2" d="M56.9,169.7c0,8.6-4.2,15.5-9.4,15.5s-9.4-7-9.4-15.5c0-8.6,4.2-15.5,9.4-15.5S56.9,161.2,56.9,169.7"/>
		<path class="st2" d="M88.9,169.7c0,8.6,4.2,15.5,9.4,15.5c5.2,0,9.4-7,9.4-15.5c0-8.6-4.2-15.5-9.4-15.5
			C93.1,154.2,88.9,161.2,88.9,169.7"/>
		<path class="st2" d="M92.4,163.7c0,13.3-8.7,24.1-19.5,24.1c-10.8,0-19.5-10.8-19.5-24.1c0-13.3,8.7-24.1,19.5-24.1
			C83.6,139.6,92.4,150.4,92.4,163.7"/>
		<path class="st2" d="M72.9,184.4c-10.3,0-18.7-9.9-19.4-22.4c0,0.6-0.1,1.1-0.1,1.7c0,13.3,8.7,24.1,19.5,24.1
			c10.8,0,19.5-10.8,19.5-24.1c0-0.6,0-1.2-0.1-1.7C91.6,174.5,83.2,184.4,72.9,184.4"/>
	</g>
	<g>
		<g>
			<path class="st21" d="M137,143.8H7.8c-3.4,0-6.2-2.8-6.2-6.2v-0.3c0-3.4,2.8-6.2,6.2-6.2H137c3.4,0,6.2,2.8,6.2,6.2v0.3
				C143.2,141,140.4,143.8,137,143.8"/>
			<g class="st12">
				<g>
					<path class="st8" d="M8,133.5h128.9c3.1,0,5.7,2.2,6.3,5.1c0.1-0.4,0.1-0.8,0.1-1.2c0-3.5-2.9-6.4-6.4-6.4H8
						c-3.5,0-6.4,2.9-6.4,6.4c0,0.4,0,0.8,0.1,1.2C2.3,135.8,4.9,133.5,8,133.5"/>
				</g>
			</g>
			<g>
				<g>
					<path class="st13" d="M8,141.3h128.9c3.1,0,5.7-2.2,6.3-5.1c0.1,0.4,0.1,0.8,0.1,1.2c0,3.5-2.9,6.4-6.4,6.4H8
						c-3.5,0-6.4-2.9-6.4-6.4c0-0.4,0-0.8,0.1-1.2C2.3,139.1,4.9,141.3,8,141.3"/>
				</g>
			</g>
		</g>
		<g>
			<path class="st10" d="M122.7,196.4H22.2c-7.2,0-13.1-5.9-13.1-13.1v-39.5h126.7v39.5C135.8,190.5,129.9,196.4,122.7,196.4"/>
			<rect x="9" y="143.8" class="st22" width="126.7" height="3.9"/>
			<g>
				<defs>
					<path id="SVGID_7_" d="M9,143.8v39.5c0,7.2,5.9,13.1,13.1,13.1h100.5c7.2,0,13.1-5.9,13.1-13.1v-39.5H9z"/>
				</defs>
				<clipPath id="SVGID_2_">
					<use xlink:href="#SVGID_7_"  style="overflow:visible;"/>
				</clipPath>
				<g style="clip-path:url(#SVGID_2_);">
					<g>
						<line class="st22" x1="23.2" y1="152.4" x2="15.7" y2="159.8"/>
						<path class="st22" d="M15.7,160.9c-0.3,0-0.6-0.1-0.8-0.3c-0.4-0.4-0.4-1.1,0-1.6l7.5-7.5c0.4-0.4,1.1-0.4,1.6,0
							c0.4,0.4,0.4,1.1,0,1.6l-7.5,7.5C16.3,160.8,16,160.9,15.7,160.9"/>
						<line class="st22" x1="15.7" y1="152.4" x2="23.2" y2="159.8"/>
						<path class="st22" d="M23.2,160.9c-0.3,0-0.6-0.1-0.8-0.3l-7.5-7.5c-0.4-0.4-0.4-1.1,0-1.6c0.4-0.4,1.1-0.4,1.6,0l7.5,7.5
							c0.4,0.4,0.4,1.1,0,1.6C23.8,160.8,23.5,160.9,23.2,160.9"/>
					</g>
				</g>
				<g style="clip-path:url(#SVGID_2_);">
					<g>
						<line class="st22" x1="43" y1="152.4" x2="35.6" y2="159.8"/>
						<path class="st22" d="M35.6,160.9c-0.3,0-0.6-0.1-0.8-0.3c-0.4-0.4-0.4-1.1,0-1.6l7.5-7.5c0.4-0.4,1.1-0.4,1.6,0
							c0.4,0.4,0.4,1.1,0,1.6l-7.5,7.5C36.1,160.8,35.8,160.9,35.6,160.9"/>
						<line class="st22" x1="35.6" y1="152.4" x2="43" y2="159.8"/>
						<path class="st22" d="M43,160.9c-0.3,0-0.6-0.1-0.8-0.3l-7.5-7.5c-0.4-0.4-0.4-1.1,0-1.6c0.4-0.4,1.1-0.4,1.6,0l7.5,7.5
							c0.4,0.4,0.4,1.1,0,1.6C43.6,160.8,43.3,160.9,43,160.9"/>
					</g>
				</g>
				<g style="clip-path:url(#SVGID_2_);">
					<g>
						<line class="st22" x1="62.8" y1="152.4" x2="55.4" y2="159.8"/>
						<path class="st22" d="M55.4,160.9c-0.3,0-0.6-0.1-0.8-0.3c-0.4-0.4-0.4-1.1,0-1.6l7.5-7.5c0.4-0.4,1.1-0.4,1.6,0
							c0.4,0.4,0.4,1.1,0,1.6l-7.5,7.5C55.9,160.8,55.7,160.9,55.4,160.9"/>
						<line class="st22" x1="55.4" y1="152.4" x2="62.8" y2="159.8"/>
						<path class="st22" d="M62.8,160.9c-0.3,0-0.6-0.1-0.8-0.3l-7.5-7.5c-0.4-0.4-0.4-1.1,0-1.6c0.4-0.4,1.1-0.4,1.6,0l7.5,7.5
							c0.4,0.4,0.4,1.1,0,1.6C63.4,160.8,63.1,160.9,62.8,160.9"/>
					</g>
				</g>
				<g style="clip-path:url(#SVGID_2_);">
					<g>
						<line class="st22" x1="82.7" y1="152.4" x2="75.2" y2="159.8"/>
						<path class="st22" d="M75.2,160.9c-0.3,0-0.6-0.1-0.8-0.3c-0.4-0.4-0.4-1.1,0-1.6l7.5-7.5c0.4-0.4,1.1-0.4,1.6,0
							c0.4,0.4,0.4,1.1,0,1.6l-7.5,7.5C75.8,160.8,75.5,160.9,75.2,160.9"/>
						<line class="st22" x1="75.2" y1="152.4" x2="82.7" y2="159.8"/>
						<path class="st22" d="M82.7,160.9c-0.3,0-0.6-0.1-0.8-0.3l-7.5-7.5c-0.4-0.4-0.4-1.1,0-1.6c0.4-0.4,1.1-0.4,1.6,0l7.5,7.5
							c0.4,0.4,0.4,1.1,0,1.6C83.2,160.8,82.9,160.9,82.7,160.9"/>
					</g>
				</g>
				<g style="clip-path:url(#SVGID_2_);">
					<g>
						<line class="st22" x1="102.5" y1="152.4" x2="95" y2="159.8"/>
						<path class="st22" d="M95,160.9c-0.3,0-0.6-0.1-0.8-0.3c-0.4-0.4-0.4-1.1,0-1.6l7.5-7.5c0.4-0.4,1.1-0.4,1.6,0
							c0.4,0.4,0.4,1.1,0,1.6l-7.5,7.5C95.6,160.8,95.3,160.9,95,160.9"/>
						<line class="st22" x1="95" y1="152.4" x2="102.5" y2="159.8"/>
						<path class="st22" d="M102.5,160.9c-0.3,0-0.6-0.1-0.8-0.3l-7.5-7.5c-0.4-0.4-0.4-1.1,0-1.6c0.4-0.4,1.1-0.4,1.6,0l7.5,7.5
							c0.4,0.4,0.4,1.1,0,1.6C103.1,160.8,102.8,160.9,102.5,160.9"/>
					</g>
				</g>
				<g style="clip-path:url(#SVGID_2_);">
					<g>
						<line class="st22" x1="122.3" y1="152.4" x2="114.8" y2="159.8"/>
						<path class="st22" d="M114.8,160.9c-0.3,0-0.6-0.1-0.8-0.3c-0.4-0.4-0.4-1.1,0-1.6l7.5-7.5c0.4-0.4,1.1-0.4,1.6,0
							c0.4,0.4,0.4,1.1,0,1.6l-7.5,7.5C115.4,160.8,115.1,160.9,114.8,160.9"/>
						<line class="st22" x1="114.8" y1="152.4" x2="122.3" y2="159.8"/>
						<path class="st22" d="M122.3,160.9c-0.3,0-0.6-0.1-0.8-0.3l-7.5-7.5c-0.4-0.4-0.4-1.1,0-1.6c0.4-0.4,1.1-0.4,1.6,0l7.5,7.5
							c0.4,0.4,0.4,1.1,0,1.6C122.9,160.8,122.6,160.9,122.3,160.9"/>
					</g>
				</g>
				<g style="clip-path:url(#SVGID_2_);">
					<g>
						<line class="st22" x1="142.1" y1="152.4" x2="134.7" y2="159.8"/>
						<path class="st22" d="M134.7,160.9c-0.3,0-0.6-0.1-0.8-0.3c-0.4-0.4-0.4-1.1,0-1.6l7.5-7.5c0.4-0.4,1.1-0.4,1.6,0
							c0.4,0.4,0.4,1.1,0,1.6l-7.5,7.5C135.2,160.8,134.9,160.9,134.7,160.9"/>
						<line class="st22" x1="134.7" y1="152.4" x2="142.1" y2="159.8"/>
						<path class="st22" d="M142.1,160.9c-0.3,0-0.6-0.1-0.8-0.3l-7.5-7.5c-0.4-0.4-0.4-1.1,0-1.6c0.4-0.4,1.1-0.4,1.6,0l7.5,7.5
							c0.4,0.4,0.4,1.1,0,1.6C142.7,160.8,142.4,160.9,142.1,160.9"/>
					</g>
				</g>
				<g style="clip-path:url(#SVGID_2_);">
					<g>
						<line class="st22" x1="13.5" y1="168" x2="6" y2="175.5"/>
						<path class="st22" d="M6,176.6c-0.3,0-0.6-0.1-0.8-0.3c-0.4-0.4-0.4-1.1,0-1.6l7.5-7.5c0.4-0.4,1.1-0.4,1.6,0
							c0.4,0.4,0.4,1.1,0,1.6l-7.5,7.5C6.6,176.5,6.3,176.6,6,176.6"/>
						<line class="st22" x1="6" y1="168" x2="13.5" y2="175.5"/>
						<path class="st22" d="M13.5,176.6c-0.3,0-0.6-0.1-0.8-0.3l-7.5-7.5c-0.4-0.4-0.4-1.1,0-1.6c0.4-0.4,1.1-0.4,1.6,0l7.5,7.5
							c0.4,0.4,0.4,1.1,0,1.6C14.1,176.5,13.8,176.6,13.5,176.6"/>
					</g>
				</g>
				<g style="clip-path:url(#SVGID_2_);">
					<g>
						<line class="st22" x1="33.3" y1="168" x2="25.9" y2="175.5"/>
						<path class="st22" d="M25.9,176.6c-0.3,0-0.6-0.1-0.8-0.3c-0.4-0.4-0.4-1.1,0-1.6l7.5-7.5c0.4-0.4,1.1-0.4,1.6,0
							c0.4,0.4,0.4,1.1,0,1.6l-7.5,7.5C26.4,176.5,26.1,176.6,25.9,176.6"/>
						<line class="st22" x1="25.9" y1="168" x2="33.3" y2="175.5"/>
						<path class="st22" d="M33.3,176.6c-0.3,0-0.6-0.1-0.8-0.3l-7.5-7.5c-0.4-0.4-0.4-1.1,0-1.6c0.4-0.4,1.1-0.4,1.6,0l7.5,7.5
							c0.4,0.4,0.4,1.1,0,1.6C33.9,176.5,33.6,176.6,33.3,176.6"/>
					</g>
				</g>
				<g style="clip-path:url(#SVGID_2_);">
					<g>
						<line class="st22" x1="53.2" y1="168" x2="45.7" y2="175.5"/>
						<path class="st22" d="M45.7,176.6c-0.3,0-0.6-0.1-0.8-0.3c-0.4-0.4-0.4-1.1,0-1.6l7.5-7.5c0.4-0.4,1.1-0.4,1.6,0
							c0.4,0.4,0.4,1.1,0,1.6l-7.5,7.5C46.3,176.5,46,176.6,45.7,176.6"/>
						<line class="st22" x1="45.7" y1="168" x2="53.2" y2="175.5"/>
						<path class="st22" d="M53.2,176.6c-0.3,0-0.6-0.1-0.8-0.3l-7.5-7.5c-0.4-0.4-0.4-1.1,0-1.6c0.4-0.4,1.1-0.4,1.6,0l7.5,7.5
							c0.4,0.4,0.4,1.1,0,1.6C53.7,176.5,53.4,176.6,53.2,176.6"/>
					</g>
				</g>
				<g style="clip-path:url(#SVGID_2_);">
					<g>
						<line class="st22" x1="73" y1="168" x2="65.5" y2="175.5"/>
						<path class="st22" d="M65.5,176.6c-0.3,0-0.6-0.1-0.8-0.3c-0.4-0.4-0.4-1.1,0-1.6l7.5-7.5c0.4-0.4,1.1-0.4,1.6,0
							c0.4,0.4,0.4,1.1,0,1.6l-7.5,7.5C66.1,176.5,65.8,176.6,65.5,176.6"/>
						<line class="st22" x1="65.5" y1="168" x2="73" y2="175.5"/>
						<path class="st22" d="M73,176.6c-0.3,0-0.6-0.1-0.8-0.3l-7.5-7.5c-0.4-0.4-0.4-1.1,0-1.6c0.4-0.4,1.1-0.4,1.6,0l7.5,7.5
							c0.4,0.4,0.4,1.1,0,1.6C73.5,176.5,73.3,176.6,73,176.6"/>
					</g>
				</g>
				<g style="clip-path:url(#SVGID_2_);">
					<g>
						<line class="st22" x1="92.8" y1="168" x2="85.3" y2="175.5"/>
						<path class="st22" d="M85.3,176.6c-0.3,0-0.6-0.1-0.8-0.3c-0.4-0.4-0.4-1.1,0-1.6l7.5-7.5c0.4-0.4,1.1-0.4,1.6,0
							c0.4,0.4,0.4,1.1,0,1.6l-7.5,7.5C85.9,176.5,85.6,176.6,85.3,176.6"/>
						<line class="st22" x1="85.3" y1="168" x2="92.8" y2="175.5"/>
						<path class="st22" d="M92.8,176.6c-0.3,0-0.6-0.1-0.8-0.3l-7.5-7.5c-0.4-0.4-0.4-1.1,0-1.6c0.4-0.4,1.1-0.4,1.6,0l7.5,7.5
							c0.4,0.4,0.4,1.1,0,1.6C93.4,176.5,93.1,176.6,92.8,176.6"/>
					</g>
				</g>
				<g style="clip-path:url(#SVGID_2_);">
					<g>
						<line class="st22" x1="112.6" y1="168" x2="105.1" y2="175.5"/>
						<path class="st22" d="M105.1,176.6c-0.3,0-0.6-0.1-0.8-0.3c-0.4-0.4-0.4-1.1,0-1.6l7.5-7.5c0.4-0.4,1.1-0.4,1.6,0
							c0.4,0.4,0.4,1.1,0,1.6l-7.5,7.5C105.7,176.5,105.4,176.6,105.1,176.6"/>
						<line class="st22" x1="105.1" y1="168" x2="112.6" y2="175.5"/>
						<path class="st22" d="M112.6,176.6c-0.3,0-0.6-0.1-0.8-0.3l-7.5-7.5c-0.4-0.4-0.4-1.1,0-1.6c0.4-0.4,1.1-0.4,1.6,0l7.5,7.5
							c0.4,0.4,0.4,1.1,0,1.6C113.2,176.5,112.9,176.6,112.6,176.6"/>
					</g>
				</g>
				<g style="clip-path:url(#SVGID_2_);">
					<g>
						<line class="st22" x1="132.4" y1="168" x2="125" y2="175.5"/>
						<path class="st22" d="M125,176.6c-0.3,0-0.6-0.1-0.8-0.3c-0.4-0.4-0.4-1.1,0-1.6l7.5-7.5c0.4-0.4,1.1-0.4,1.6,0
							c0.4,0.4,0.4,1.1,0,1.6l-7.5,7.5C125.5,176.5,125.2,176.6,125,176.6"/>
						<line class="st22" x1="125" y1="168" x2="132.4" y2="175.5"/>
						<path class="st22" d="M132.4,176.6c-0.3,0-0.6-0.1-0.8-0.3l-7.5-7.5c-0.4-0.4-0.4-1.1,0-1.6c0.4-0.4,1.1-0.4,1.6,0l7.5,7.5
							c0.4,0.4,0.4,1.1,0,1.6C133,176.5,132.7,176.6,132.4,176.6"/>
					</g>
				</g>
				<g style="clip-path:url(#SVGID_2_);">
					<g>
						<line class="st22" x1="23.2" y1="183.6" x2="15.7" y2="191.1"/>
						<path class="st22" d="M15.7,192.2c-0.3,0-0.6-0.1-0.8-0.3c-0.4-0.4-0.4-1.1,0-1.6l7.5-7.5c0.4-0.4,1.1-0.4,1.6,0
							c0.4,0.4,0.4,1.1,0,1.6l-7.5,7.5C16.3,192.1,16,192.2,15.7,192.2"/>
						<line class="st22" x1="15.7" y1="183.6" x2="23.2" y2="191.1"/>
						<path class="st22" d="M23.2,192.2c-0.3,0-0.6-0.1-0.8-0.3l-7.5-7.5c-0.4-0.4-0.4-1.1,0-1.6c0.4-0.4,1.1-0.4,1.6,0l7.5,7.5
							c0.4,0.4,0.4,1.1,0,1.6C23.8,192.1,23.5,192.2,23.2,192.2"/>
					</g>
				</g>
				<g style="clip-path:url(#SVGID_2_);">
					<g>
						<line class="st22" x1="43" y1="183.6" x2="35.6" y2="191.1"/>
						<path class="st22" d="M35.6,192.2c-0.3,0-0.6-0.1-0.8-0.3c-0.4-0.4-0.4-1.1,0-1.6l7.5-7.5c0.4-0.4,1.1-0.4,1.6,0
							c0.4,0.4,0.4,1.1,0,1.6l-7.5,7.5C36.1,192.1,35.8,192.2,35.6,192.2"/>
						<line class="st22" x1="35.6" y1="183.6" x2="43" y2="191.1"/>
						<path class="st22" d="M43,192.2c-0.3,0-0.6-0.1-0.8-0.3l-7.5-7.5c-0.4-0.4-0.4-1.1,0-1.6c0.4-0.4,1.1-0.4,1.6,0l7.5,7.5
							c0.4,0.4,0.4,1.1,0,1.6C43.6,192.1,43.3,192.2,43,192.2"/>
					</g>
				</g>
				<g style="clip-path:url(#SVGID_2_);">
					<g>
						<line class="st22" x1="62.8" y1="183.6" x2="55.4" y2="191.1"/>
						<path class="st22" d="M55.4,192.2c-0.3,0-0.6-0.1-0.8-0.3c-0.4-0.4-0.4-1.1,0-1.6l7.5-7.5c0.4-0.4,1.1-0.4,1.6,0
							c0.4,0.4,0.4,1.1,0,1.6l-7.5,7.5C55.9,192.1,55.7,192.2,55.4,192.2"/>
						<line class="st22" x1="55.4" y1="183.6" x2="62.8" y2="191.1"/>
						<path class="st22" d="M62.8,192.2c-0.3,0-0.6-0.1-0.8-0.3l-7.5-7.5c-0.4-0.4-0.4-1.1,0-1.6c0.4-0.4,1.1-0.4,1.6,0l7.5,7.5
							c0.4,0.4,0.4,1.1,0,1.6C63.4,192.1,63.1,192.2,62.8,192.2"/>
					</g>
				</g>
				<g style="clip-path:url(#SVGID_2_);">
					<g>
						<line class="st22" x1="82.7" y1="183.6" x2="75.2" y2="191.1"/>
						<path class="st22" d="M75.2,192.2c-0.3,0-0.6-0.1-0.8-0.3c-0.4-0.4-0.4-1.1,0-1.6l7.5-7.5c0.4-0.4,1.1-0.4,1.6,0
							c0.4,0.4,0.4,1.1,0,1.6l-7.5,7.5C75.8,192.1,75.5,192.2,75.2,192.2"/>
						<line class="st22" x1="75.2" y1="183.6" x2="82.7" y2="191.1"/>
						<path class="st22" d="M82.7,192.2c-0.3,0-0.6-0.1-0.8-0.3l-7.5-7.5c-0.4-0.4-0.4-1.1,0-1.6c0.4-0.4,1.1-0.4,1.6,0l7.5,7.5
							c0.4,0.4,0.4,1.1,0,1.6C83.2,192.1,82.9,192.2,82.7,192.2"/>
					</g>
				</g>
				<g style="clip-path:url(#SVGID_2_);">
					<g>
						<line class="st22" x1="102.5" y1="183.6" x2="95" y2="191.1"/>
						<path class="st22" d="M95,192.2c-0.3,0-0.6-0.1-0.8-0.3c-0.4-0.4-0.4-1.1,0-1.6l7.5-7.5c0.4-0.4,1.1-0.4,1.6,0
							c0.4,0.4,0.4,1.1,0,1.6l-7.5,7.5C95.6,192.1,95.3,192.2,95,192.2"/>
						<line class="st22" x1="95" y1="183.6" x2="102.5" y2="191.1"/>
						<path class="st22" d="M102.5,192.2c-0.3,0-0.6-0.1-0.8-0.3l-7.5-7.5c-0.4-0.4-0.4-1.1,0-1.6c0.4-0.4,1.1-0.4,1.6,0l7.5,7.5
							c0.4,0.4,0.4,1.1,0,1.6C103.1,192.1,102.8,192.2,102.5,192.2"/>
					</g>
				</g>
				<g style="clip-path:url(#SVGID_2_);">
					<g>
						<line class="st22" x1="122.3" y1="183.6" x2="114.8" y2="191.1"/>
						<path class="st22" d="M114.8,192.2c-0.3,0-0.6-0.1-0.8-0.3c-0.4-0.4-0.4-1.1,0-1.6l7.5-7.5c0.4-0.4,1.1-0.4,1.6,0
							c0.4,0.4,0.4,1.1,0,1.6l-7.5,7.5C115.4,192.1,115.1,192.2,114.8,192.2"/>
						<line class="st22" x1="114.8" y1="183.6" x2="122.3" y2="191.1"/>
						<path class="st22" d="M122.3,192.2c-0.3,0-0.6-0.1-0.8-0.3l-7.5-7.5c-0.4-0.4-0.4-1.1,0-1.6c0.4-0.4,1.1-0.4,1.6,0l7.5,7.5
							c0.4,0.4,0.4,1.1,0,1.6C122.9,192.1,122.6,192.2,122.3,192.2"/>
					</g>
				</g>
				<g style="clip-path:url(#SVGID_2_);">
					<g>
						<line class="st22" x1="142.1" y1="183.6" x2="134.7" y2="191.1"/>
						<path class="st22" d="M134.7,192.2c-0.3,0-0.6-0.1-0.8-0.3c-0.4-0.4-0.4-1.1,0-1.6l7.5-7.5c0.4-0.4,1.1-0.4,1.6,0
							c0.4,0.4,0.4,1.1,0,1.6l-7.5,7.5C135.2,192.1,134.9,192.2,134.7,192.2"/>
						<line class="st22" x1="134.7" y1="183.6" x2="142.1" y2="191.1"/>
						<path class="st22" d="M142.1,192.2c-0.3,0-0.6-0.1-0.8-0.3l-7.5-7.5c-0.4-0.4-0.4-1.1,0-1.6c0.4-0.4,1.1-0.4,1.6,0l7.5,7.5
							c0.4,0.4,0.4,1.1,0,1.6C142.7,192.1,142.4,192.2,142.1,192.2"/>
					</g>
				</g>
			</g>
		</g>
	</g>
	<path class="st2" d="M106,44.7C99.6,66.2,85.7,82,78.6,79.9c-7.1-2.1-7.6-21.2-1.3-42.8C83.7,15.6,94.6-0.1,101.7,2
		C108.8,4.1,112.3,23.2,106,44.7"/>
	<path class="st4" d="M101.7,2c-1-0.3-2-0.2-3,0.1c6.9,2.5,10.3,21.4,4,42.6c-5.5,18.7-16.8,33.1-24.3,35.2c0.1,0,0.1,0.1,0.2,0.1
		c7.1,2.1,21-13.7,27.4-35.3C112.3,23.2,108.8,4.1,101.7,2"/>
	<g>
		<path class="st5" d="M80.2,78.7c-0.1,0-0.1,0-0.2,0c-0.6-0.1-2.8-2.3-3.3-10.3c-0.4-7.7,0.9-17.4,3.8-27.5
			c2.7-9.5,6.5-18.2,10.7-24.5c4.4-6.7,7.7-8.5,8.9-8.5c0.1,0,0.1,0,0.2,0c0.6,0.1,2.8,2.3,3.3,10.3c0.5,7.7-0.9,17.4-3.8,27.5
			C97,55.1,93.2,63.9,89,70.2C84.7,76.9,81.3,78.7,80.2,78.7"/>
		<path class="st6" d="M103.5,18.2c-0.5-8-2.7-10.1-3.3-10.3c0,0-0.1,0-0.2,0c-0.6,0-1.8,0.5-3.4,1.9c0.9,1,2.2,3.7,2.6,9.7
			c0.5,7.7-0.9,17.4-3.8,27.5c-2.7,9.5-6.5,18.2-10.7,24.5c-2.1,3.2-4,5.3-5.5,6.6c0.3,0.3,0.5,0.5,0.7,0.5c0,0,0.1,0,0.2,0
			c1.2,0,4.5-1.9,8.9-8.5c4.2-6.4,8-15.1,10.7-24.5C102.6,35.6,104,25.8,103.5,18.2"/>
	</g>
	<path class="st2" d="M38.9,44.7C45.2,66.2,59.2,82,66.2,79.9c7.1-2.1,7.6-21.2,1.3-42.8C61.1,15.6,50.2-0.1,43.1,2
		C36.1,4.1,32.5,23.2,38.9,44.7"/>
	<path class="st4" d="M43.1,2c1-0.3,2-0.2,3,0.1c-6.9,2.5-10.3,21.4-4,42.6C47.7,63.4,59,77.8,66.5,79.9c-0.1,0-0.1,0.1-0.2,0.1
		c-7.1,2.1-21-13.7-27.4-35.3C32.5,23.2,36.1,4.1,43.1,2"/>
	<g>
		<path class="st5" d="M64.7,78.7c0.1,0,0.1,0,0.2,0c0.6-0.1,2.8-2.3,3.3-10.3c0.4-7.7-0.9-17.4-3.8-27.5
			c-2.7-9.5-6.5-18.2-10.7-24.5c-4.4-6.7-7.7-8.5-8.9-8.5c-0.1,0-0.1,0-0.2,0C44,8,41.8,10.2,41.3,18.2c-0.5,7.7,0.9,17.4,3.8,27.5
			c2.7,9.5,6.5,18.2,10.7,24.5C60.2,76.9,63.5,78.7,64.7,78.7"/>
		<path class="st6" d="M41.3,18.2c0.5-8,2.7-10.1,3.3-10.3c0,0,0.1,0,0.2,0c0.6,0,1.8,0.5,3.4,1.9c-0.9,1-2.2,3.7-2.6,9.7
			c-0.5,7.7,0.9,17.4,3.8,27.5c2.7,9.5,6.5,18.2,10.7,24.5c2.1,3.2,4,5.3,5.5,6.6c-0.3,0.3-0.5,0.5-0.7,0.5c0,0-0.1,0-0.2,0
			c-1.2,0-4.5-1.9-8.9-8.5c-4.2-6.4-8-15.1-10.7-24.5C42.2,35.6,40.9,25.8,41.3,18.2"/>
	</g>
	<path class="st2" d="M112.6,95.5c0,18.7-18,33.9-40.1,33.9c-22.2,0-40.2-15.2-40.2-33.9s18-33.9,40.2-33.9
		C94.6,61.7,112.6,76.8,112.6,95.5"/>
	<path class="st4" d="M72.4,123.5c-21,0-38.2-13.6-40-30.9c-0.1,1-0.2,1.9-0.2,2.9c0,18.7,18,33.9,40.2,33.9
		c22.2,0,40.2-15.2,40.2-33.9c0-1-0.1-2-0.2-2.9C110.6,109.9,93.4,123.5,72.4,123.5"/>
	<g>
		<g>
			<g>
				<path class="st7" d="M72.2,101.2c-2.5-0.1-5.8,0.9-5.1,2.7c0.8,1.9,3.6,4.2,5.1,4.2c1.6,0,4.3-2.3,5.1-4.2
					C78.1,102,74.8,101.1,72.2,101.2"/>
				<path class="st8" d="M72,102.8c0.1,0.4-0.5,0.8-1.4,1c-0.9,0.2-1.7,0.1-1.9-0.3c-0.1-0.4,0.5-0.8,1.4-1
					C71,102.3,71.8,102.4,72,102.8"/>
			</g>
			<path class="st5" d="M77,112.9l-2-1.2l-1.6-1.7l-1.2-2.9l-0.8,2.3l-2.2,2.2l-2.8,0.9c0.5,2.1,2.9,3.6,5.8,3.6
				c2.7,0,5-1.4,5.7-3.3H77z"/>
			<path class="st7" d="M65.5,113.5c-4,0-7.3-3.3-7.3-7.3c0-0.3,0.3-0.6,0.6-0.6c0.3,0,0.6,0.3,0.6,0.6c0,3.4,2.8,6.1,6.1,6.1
				c3.4,0,6.1-2.8,6.1-6.1c0-0.3,0.3-0.6,0.6-0.6s0.6,0.3,0.6,0.6C72.8,110.2,69.5,113.5,65.5,113.5"/>
			<path class="st7" d="M79,113.5c-4,0-7.3-3.3-7.3-7.3c0-0.3,0.3-0.6,0.6-0.6c0.3,0,0.6,0.3,0.6,0.6c0,3.4,2.8,6.1,6.1,6.1
				c3.4,0,6.1-2.8,6.1-6.1c0-0.3,0.3-0.6,0.6-0.6c0.3,0,0.6,0.3,0.6,0.6C86.3,110.2,83,113.5,79,113.5"/>
			<path class="st7" d="M60.3,105.8c0,0.4-0.6,0.7-1.4,0.7c-0.8,0-1.4-0.3-1.4-0.7c0-0.4,0.6-0.7,1.4-0.7
				C59.7,105.1,60.3,105.4,60.3,105.8"/>
			<path class="st7" d="M87.4,105.8c0,0.4-0.6,0.7-1.4,0.7c-0.8,0-1.4-0.3-1.4-0.7c0-0.4,0.6-0.7,1.4-0.7
				C86.7,105.1,87.4,105.4,87.4,105.8"/>
		</g>
		<g>
			<path class="st5" d="M52.4,105c0,1.7-2,3-4.4,3c-2.5,0-4.4-1.4-4.4-3c0-1.7,2-3,4.4-3C50.5,101.9,52.4,103.3,52.4,105"/>
			<path class="st5" d="M103.2,105c0,1.7-2,3-4.4,3c-2.5,0-4.4-1.4-4.4-3c0-1.7,2-3,4.4-3C101.2,101.9,103.2,103.3,103.2,105"/>
		</g>
		<g>
			<g>
				<path class="st7" d="M59.5,95.1c0,3.1-2.5,5.6-5.6,5.6c-3.1,0-5.6-2.5-5.6-5.6c0-3.1,2.5-5.6,5.6-5.6C57,89.6,59.5,92,59.5,95.1
					"/>
				<path class="st8" d="M51.5,93.9c0-0.9,0.7-1.6,1.6-1.6c0.9,0,1.6,0.7,1.6,1.6s-0.7,1.6-1.6,1.6C52.2,95.5,51.5,94.8,51.5,93.9"
					/>
			</g>
			<g>
				<path class="st7" d="M85,95.1c0,3.1,2.5,5.6,5.6,5.6c3.1,0,5.6-2.5,5.6-5.6c0-3.1-2.5-5.6-5.6-5.6C87.5,89.6,85,92,85,95.1"/>
				<path class="st8" d="M92.9,93.9c0-0.9-0.7-1.6-1.6-1.6s-1.6,0.7-1.6,1.6s0.7,1.6,1.6,1.6S92.9,94.8,92.9,93.9"/>
			</g>
		</g>
	</g>
	<path class="st2" d="M45.4,137.1c-6.3,0.9-11.9-1.9-12.6-6.3c-0.7-4.4,3.9-8.8,10.2-9.7c6.3-0.9,11.9,1.9,12.6,6.3
		C56.2,131.8,51.6,136.1,45.4,137.1"/>
	<path class="st4" d="M45.4,137.1c1.4-0.2,2.6-0.6,3.8-1.1c-0.6,0.2-1.3,0.3-2,0.4c-6.3,0.9-11.9-1.9-12.6-6.3
		c-0.5-3.5,2.2-6.9,6.4-8.6c-5.2,1.5-8.8,5.3-8.2,9.3C33.5,135.2,39.1,138,45.4,137.1"/>
	<path class="st2" d="M97.7,137.1c6.3,0.9,11.9-1.9,12.6-6.3c0.7-4.4-3.9-8.8-10.2-9.7c-6.3-0.9-11.9,1.9-12.6,6.3
		C86.9,131.8,91.4,136.1,97.7,137.1"/>
	<path class="st4" d="M97.7,137.1c-1.4-0.2-2.6-0.6-3.8-1.1c0.6,0.2,1.3,0.3,2,0.4c6.3,0.9,11.9-1.9,12.6-6.3
		c0.5-3.5-2.2-6.9-6.4-8.6c5.2,1.5,8.8,5.3,8.2,9.3C109.6,135.2,104,138,97.7,137.1"/>
</g>
</svg>
